<svg xmlns="http://www.w3.org/2000/svg" version="1.1" id="Layer_1" x="0" y="0" xml:space="preserve" width="180" height="180"><defs id="defs2019"><linearGradient y2="315.488" x2="278.019" y1="314.938" x1="106.963" gradientUnits="userSpaceOnUse" id="SVGID_43_" gradientTransform="translate(-160 -164.9)"><stop id="stop1976" offset="0" stop-color="#50c6ef"/><stop id="stop1978" offset=".452" stop-color="#4ec4ef"/><stop id="stop1980" offset=".614" stop-color="#49bdef"/><stop id="stop1982" offset=".73" stop-color="#3fb2f0"/><stop id="stop1984" offset=".824" stop-color="#31a1f1"/><stop id="stop1986" offset=".904" stop-color="#208bf2"/><stop id="stop1988" offset=".974" stop-color="#0a70f3"/><stop id="stop1990" offset="1" stop-color="#0064f4"/></linearGradient><linearGradient y2="236.141" x2="278.274" y1="235.591" x1="107.218" gradientUnits="userSpaceOnUse" id="SVGID_44_" gradientTransform="translate(-158.6 -164.9)"><stop id="stop1995" offset="0" stop-color="#50c6ef"/><stop id="stop1997" offset=".452" stop-color="#4ec4ef"/><stop id="stop1999" offset=".614" stop-color="#49bdef"/><stop id="stop2001" offset=".73" stop-color="#3fb2f0"/><stop id="stop2003" offset=".824" stop-color="#31a1f1"/><stop id="stop2005" offset=".904" stop-color="#208bf2"/><stop id="stop2007" offset=".974" stop-color="#0a70f3"/><stop id="stop2009" offset="1" stop-color="#0064f4"/></linearGradient></defs><g id="g2365" transform="translate(0 11.5)"><path d="M90 154.9c-12 0-22.7-5.8-29.4-14.8C64.8 152.3 76.4 161 90 161c13.6 0 25.2-8.7 29.4-20.9-6.7 9-17.4 14.8-29.4 14.8z" id="path1993" fill="url(#SVGID_43_)"/><path d="M113.3 18.1c-.1-3-1.5-6.4-3.3-8.9C105.8 3.6 98.1.3 90 0c-8.1.4-15.8 3.6-20 9.2-1.8 2.4-3.2 5.9-3.3 8.9-.9 24.9-1.8 49.8-2 74.7 0 4 2.8 8.2 4.8 12 6.3 11.8 12.8 23.5 19.3 35.3l1.2 2.2 1.2-2.2c6.5-11.8 13-23.5 19.3-35.3 2-3.8 4.8-8 4.8-12-.2-24.9-1.1-49.8-2-74.7zM90.1 5.2c9.1.4 16.1 4.9 18 11.9-6.1-2.5-12-3.9-18-3.9-5.9 0-11.9 1.4-18 3.9 1.8-7 8.9-11.4 18-11.9zm7.1 112.9c-.6 1-2.2 2-3.4 2.2-1.5.2-2.7.4-3.8.5-1.1-.1-2.3-.3-3.8-.5-1.2-.2-2.8-1.2-3.4-2.2-3.4-6-6.8-12.2-10.3-18.6h34.8c-3.3 6.4-6.6 12.6-10.1 18.6zM90.1 29c-6.1.3-12.3 2.1-18.5 5 0-2.9.2-5.4.1-7.9-.1-2.3.9-3.4 2.9-4.2 5.2-2.2 10.4-3.4 15.6-3.5 5.2 0 10.4 1.3 15.6 3.5 1.9.8 3 2 2.9 4.2-.2 2.5 0 4.9.1 7.9-6.5-2.9-12.6-4.6-18.7-5z" id="path2012" fill="url(#SVGID_44_)"/></g><path d="M167.375 70.198L138.52 77.95V91.3l28.855 6.03z" id="path2373" fill="#309ff1" fill-opacity="1" stroke="none" stroke-width="1" stroke-linecap="butt" stroke-linejoin="miter" stroke-opacity="1"/><path id="path2375" d="M144.79 26.784L127.67 51.27l8.52 10.483 26.04-14.185z" fill="#309ff1" fill-opacity="1" stroke="none" stroke-width="1" stroke-linecap="butt" stroke-linejoin="miter" stroke-opacity="1"/><path d="M162.106 118.668l-27.087-12.609-7.227 9.623 16.874 23.77z" id="path2377" fill="#309ff1" fill-opacity="1" stroke="none" stroke-width="1" stroke-linecap="butt" stroke-linejoin="miter" stroke-opacity="1"/><path id="path2385" d="M12.835 70.629L41.69 78.38v13.35l-28.855 6.03z" fill="#309ff1" fill-opacity="1" stroke="none" stroke-width="1" stroke-linecap="butt" stroke-linejoin="miter" stroke-opacity="1"/><path d="M35.42 27.215L52.54 51.7l-8.519 10.484L17.98 48z" id="path2387" fill="#309ff1" fill-opacity="1" stroke="none" stroke-width="1" stroke-linecap="butt" stroke-linejoin="miter" stroke-opacity="1"/><path id="path2389" d="M18.104 119.099l27.087-12.61 7.228 9.623-16.875 23.77z" fill="#309ff1" fill-opacity="1" stroke="none" stroke-width="1" stroke-linecap="butt" stroke-linejoin="miter" stroke-opacity="1"/></svg>