<svg version="1" xmlns="http://www.w3.org/2000/svg" width="933.333" height="933.333" viewBox="0 0 700.000000 700.000000"><path d="M341 45.3c-.3.3-2.7.7-5.5 1.1-5.6.6-19.9 4.1-23 5.6-1.1.5-4.6 2-7.7 3.4-14.7 6.3-29.7 19.2-36.5 31.4-7.8 13.9-8.8 19.2-9.8 52.7-.3 9.9-.8 22.5-1 28-.4 9.7-1.3 35.2-2 60-.2 6.6-.6 21.9-1 34-1.1 36.7-2 77.2-2.9 136-.1 5.5.4 12.9 1.2 16.5 1.2 6.3 8.2 21.6 17.2 38 5.3 9.7 11.8 21.5 22.3 41 1.6 3 4.2 7.7 5.7 10.5 1.5 2.7 10.3 18.7 19.5 35.5s17.8 32.3 19 34.5c1.2 2.2 4.6 8.4 7.5 13.8 3 5.3 5.7 9.7 6.2 9.7s1.6-1.5 2.4-3.3c.8-1.7 1.9-3.9 2.4-4.7.5-.8 5.8-10.3 11.6-21 16.1-29.5 28.6-52.2 30.6-55.5 1-1.7 2.2-3.9 2.7-5.1.5-1.2 3.2-6.1 5.9-11 5.7-10.4 8.4-15.2 22.2-40.9 19.3-35.7 20.2-38.1 20.3-55.8 0-11.3-1.1-74.8-1.8-102.2-.5-19.3-1.6-59.5-2-70.7-.2-5.7-.7-19.8-1-31.3-.4-11.6-.8-24.4-1-28.5-.2-4.1-.7-17-1-28.5-.9-30.5-1.4-33.9-6.4-45-11-24.3-35.7-41.3-68-46.9-7.4-1.3-25.2-2.1-26.1-1.3zM367.5 67c16.4 3.9 28.9 10.5 38.4 19.9 6.1 6.2 11.7 15.2 13.6 22 .6 2.1.5 2.3-1.1 1.6-3.7-1.6-23.9-8.4-26.4-8.9-1.4-.3-4.3-1-6.5-1.5s-6-1.3-8.5-1.6c-2.5-.4-6.3-1-8.5-1.4-4.8-.9-33.3-.7-39 .3-10.4 1.8-15.8 3-25.5 5.7-5.8 1.6-11.4 3.3-12.5 3.8-1.1.5-3.9 1.6-6.2 2.5-5.4 2-5.5 1.2-1.1-8.2 4.5-9.4 15.6-20.3 26.6-26 4.5-2.4 8.2-4 8.2-3.6 0 .3.6.2 1.3-.3 1.7-1.3 8-3.2 16.2-4.7 8-1.6 23.6-1.4 31 .4zm.9 50.4c8.1 1.3 10.1 1.7 20.6 4.7 19.9 5.7 29.5 10.4 32 15.7.8 1.8 1.4 8.9 1.6 20.8l.3 18.1-9.7-3.9c-19.6-7.9-46-14.5-60.2-15-5-.1-16.5.8-21.5 1.8-1.1.2-3.2.6-4.6.9-12 2.2-42.7 12.6-46.6 15.7-1.6 1.3-1.6 1.9-1.4-18.7.3-18.9 1-21.8 6.4-25 5.7-3.5 24.9-10.4 32.7-11.8 1.4-.3 3.6-.8 5-1.1 4.6-1.1 8.4-1.7 14-2.3 3-.3 5.6-.6 5.7-.8.6-.4 21.6.3 25.7.9zm46.9 314.5c2 .1 0 4.2-20.8 42.6-14.4 26.6-17.6 31.6-22 34.6-4 2.8-5.9 3.3-15 4.5-12.9 1.7-26.3-.8-32.2-6-2-1.7-8.5-12.6-20.6-34.6-1.3-2.5-4.7-8.6-7.4-13.5-2.8-5-6.7-12.2-8.8-16-2.1-3.9-4.1-7.5-4.5-8-2.9-4.2-5.4-4 63.9-3.8 36.1 0 66.4.1 67.4.2zM557.3 112.2c-2.7 4-7.6 11.1-10.9 15.7-3.2 4.5-6.6 9.3-7.4 10.5-.8 1.1-10.3 14.7-21 30.1-10.8 15.4-19.9 28.6-20.4 29.3-1 1.6 1.3 5.2 7.9 12.6.6.6 6.1 7.5 12.4 15.3 8.3 10.3 11.8 14 12.9 13.5 1.4-.5 15.5-8.1 36.2-19.4 29.3-16.1 36.1-19.8 36.5-19.8.2 0 2.6-1.3 5.2-2.8 4.4-2.6 14.6-8.2 20-11.1 2.2-1.1 2-1.5-8.4-13.9-5.9-7-11-12.9-11.3-13.2-.3-.3-10.6-12.5-22.9-27.3-12.3-14.7-22.6-26.7-23-26.7-.4 0-3 3.3-5.8 7.2zM130 115.1c-4.1 4.9-8.3 10-9.4 11.2-1 1.2-6.2 7.4-11.4 13.7-5.3 6.3-9.9 11.7-10.2 12-.3.3-6.1 7.2-13 15.5-6.9 8.2-12.7 15.2-13 15.5-3.2 3.2-3.2 3.9.7 5.8 2.1 1 13.7 7.3 25.8 13.9 12.1 6.6 24.9 13.6 28.5 15.5 24.2 13.1 40.7 22.2 41.7 23 .8.6 4.7-3.5 12.8-13.4 6.4-7.9 12.4-15.2 13.3-16.3 1-1.1 3.2-3.9 5.1-6.3l3.4-4.3-4.9-7c-2.7-3.8-7.8-11.1-11.4-16.3-9.2-13.1-24.2-34.6-26-37.2-5.8-8.5-24.1-34.4-24.3-34.4-.1 0-3.6 4.1-7.7 9.1zM635.5 277c-20 5.5-92.8 25.1-94.2 25.4-.7.1-1.6.5-1.9.9-.9.9-1.1 49.5-.3 50.9.4.6 5.8 2.1 12 3.4 11.8 2.5 48.5 10.1 52.9 11 1.4.3 10.8 2.3 21 4.4 10.2 2.2 20.2 4.2 22.3 4.5l3.7.6v-52.5c0-28.9-.3-52.6-.7-52.5-.5 0-7.1 1.8-14.8 3.9zM50 327.6v52.6l2.8-.6c1.5-.4 3.6-.8 4.7-1 1.1-.3 10.6-2.3 21.2-4.5 10.5-2.2 20.6-4.3 22.4-4.6 1.8-.3 3.5-.7 3.8-.9.3-.2 2.3-.7 4.3-1 2.1-.3 8.9-1.7 15.2-3.1 6.3-1.3 12.5-2.6 13.8-2.9 2.7-.6 11.3-2.3 14.8-3.1 1.4-.3 4-.8 5.8-1.1 3-.6 3.2-.9 3.2-4.8.3-22-.2-47.1-.8-47.7-.4-.4-3.4-1.4-6.7-2.2-3.3-.9-17.7-4.7-32-8.6C61.4 277.7 51.2 275 50.6 275c-.3 0-.6 23.7-.6 52.6zM522.4 415.7c-.9 1.5-2.1 3.2-2.6 3.8-.5.5-5.8 7.5-11.7 15.5-7.9 10.4-10.7 14.9-10.1 16 .8 1.6 21.2 30.4 29.3 41.5 2.4 3.3 6.5 9.1 9.2 13 2.6 3.8 5.7 8.2 6.9 9.7 1.2 1.4 5.9 8.1 10.6 14.7l8.4 12.1 3.1-3.3c1.6-1.9 8.2-9.6 14.5-17.2 6.3-7.5 12-14.2 12.5-14.9.6-.6 9.3-10.9 19.3-22.9C628.1 464.2 631 460 628 460c-.8 0-5.3-2-26.5-12-4.9-2.3-11.7-5.5-15-7-7.6-3.5-16-7.4-40.4-18.9-10.7-5-19.9-9.1-20.6-9.1-.7 0-2.1 1.2-3.1 2.7zM169.5 417c-3.3 1.5-9 4.1-12.7 5.9-3.8 1.7-9.6 4.4-13 6-3.5 1.6-10.3 4.8-15.3 7.1-18.9 8.9-28.5 13.4-49.8 23.2-4.8 2.3-8.4 4.4-7.9 4.7.5.3 6.7 7.6 13.8 16.1 15.7 18.9 16.6 20 17.9 21.4.6.6 8.9 10.4 18.4 21.9l17.3 20.7 11.2-15.7c6.1-8.7 16.1-22.8 22.1-31.3s11.3-16 11.8-16.5c1.3-1.6 9.2-12.7 15.1-21.2l5.4-7.9-13.5-17.9c-7.4-9.9-13.7-18.3-14.1-18.6-.4-.4-3.4.6-6.7 2.1z"/><path d="M237.6 594.5c13.4 33 40.8 59 73.9 69.9 4.4 1.4 8.9 2.8 10 3 1.1.2 3.1.7 4.5 1 6.2 1.4 9.3 1.7 21 2.1 47.7 1.3 90.3-24.5 111.7-67.8 1.9-3.8 3.8-8.1 4.4-9.5l.9-2.7-2.6 3c-19.7 22.6-37.8 35.5-62.4 44.8-8.2 3.1-21.5 6.4-30 7.4-9.6 1.2-34.5.9-42-.5-3.6-.7-7.7-1.4-9.2-1.7-6.7-1.3-22.2-7-31.5-11.7-17-8.6-31.3-19.8-45.1-35.4l-5.2-5.9 1.6 4z"/></svg>